<svg width="31" height="35" viewBox="0 0 31 35" fill="none" xmlns="http://www.w3.org/2000/svg">
<path d="M2.58333 35C1.86574 35 1.25579 34.7448 0.753472 34.2344C0.251157 33.724 0 33.1042 0 32.375V6.125C0 5.39583 0.251157 4.77604 0.753472 4.26562C1.25579 3.75521 1.86574 3.5 2.58333 3.5H11.4097C11.5532 2.47917 12.0125 1.64062 12.7875 0.984375C13.5625 0.328125 14.4667 0 15.5 0C16.5333 0 17.4375 0.328125 18.2125 0.984375C18.9875 1.64062 19.4468 2.47917 19.5903 3.5H28.4167C29.1343 3.5 29.7442 3.75521 30.2465 4.26562C30.7488 4.77604 31 5.39583 31 6.125V32.375C31 33.1042 30.7488 33.724 30.2465 34.2344C29.7442 34.7448 29.1343 35 28.4167 35H2.58333ZM2.58333 32.375H28.4167V6.125H2.58333V32.375ZM6.88889 28H18.6431V25.375H6.88889V28ZM6.88889 20.5625H24.1111V17.9375H6.88889V20.5625ZM6.88889 13.125H24.1111V10.5H6.88889V13.125ZM15.5 5.38125C15.9019 5.38125 16.2535 5.22812 16.5549 4.92188C16.8563 4.61563 17.0069 4.25833 17.0069 3.85C17.0069 3.44167 16.8563 3.08438 16.5549 2.77813C16.2535 2.47188 15.9019 2.31875 15.5 2.31875C15.0981 2.31875 14.7465 2.47188 14.4451 2.77813C14.1437 3.08438 13.9931 3.44167 13.9931 3.85C13.9931 4.25833 14.1437 4.61563 14.4451 4.92188C14.7465 5.22812 15.0981 5.38125 15.5 5.38125Z" fill="black"/>
</svg>
