<svg width="36" height="36" viewBox="0 0 36 36" fill="none" xmlns="http://www.w3.org/2000/svg">
<path d="M26.6811 7.08228L3.41013 30.4724L2 33.8951L5.41372 32.4813L28.7419 9.14863L26.6811 7.08228Z" stroke="black" stroke-width="2.5" stroke-linecap="round" stroke-linejoin="round"/>
<path d="M31.3393 2.41467L30.3284 3.4247L32.3947 5.49105L33.4056 4.48017C33.6709 4.21472 33.8198 3.85483 33.8198 3.47957C33.8198 3.10432 33.6709 2.74442 33.4056 2.47898L33.3413 2.41467C33.2099 2.28321 33.0538 2.17892 32.882 2.10777C32.7103 2.03662 32.5262 2 32.3403 2C32.1544 2 31.9703 2.03662 31.7985 2.10777C31.6268 2.17892 31.4707 2.28321 31.3393 2.41467Z" stroke="black" stroke-width="2.5" stroke-linecap="round" stroke-linejoin="round"/>
</svg>
