<svg width="41" height="38" viewBox="0 0 41 38" fill="none" xmlns="http://www.w3.org/2000/svg">
<path d="M20.5 38C19.867 37.9992 19.2489 37.8071 18.7261 37.4488C10.9808 32.1694 7.62708 28.5495 5.77725 26.2863C1.83516 21.4621 -0.052124 16.5092 0.00109434 11.1457C0.0631824 4.99938 4.97405 0 10.9483 0C15.2925 0 18.3013 2.45714 20.0536 4.50359C20.1091 4.56777 20.1776 4.61923 20.2547 4.65449C20.3317 4.68976 20.4154 4.70801 20.5 4.70801C20.5847 4.70801 20.6683 4.68976 20.7453 4.65449C20.8224 4.61923 20.8909 4.56777 20.9464 4.50359C22.6987 2.45516 25.7075 0 30.0517 0C36.026 0 40.9368 4.99938 40.9989 11.1467C41.0521 16.5112 39.1629 21.4641 35.2228 26.2873C33.3729 28.5505 30.0192 32.1704 22.2739 37.4498C21.751 37.8078 21.1329 37.9995 20.5 38Z" fill="black"/>
</svg>
