<svg width="42" height="34" viewBox="0 0 42 34" fill="none" xmlns="http://www.w3.org/2000/svg">
<path d="M3.15 34C2.31 34 1.575 33.6724 0.945 33.0172C0.315 32.362 0 31.6271 0 30.8125V3.1875C0 2.37292 0.315 1.63802 0.945 0.982813C1.575 0.327604 2.31 0 3.15 0H17.85L21 3.1875H38.85C39.655 3.1875 40.3812 3.5151 41.0287 4.17031C41.6762 4.82552 42 5.56042 42 6.375V30.8125C42 31.6271 41.6762 32.362 41.0287 33.0172C40.3812 33.6724 39.655 34 38.85 34H3.15ZM3.15 3.1875V30.8125H38.85V6.375H19.6875L16.5375 3.1875H3.15Z" fill="black"/>
</svg>
