<svg width="35" height="27" viewBox="0 0 35 27" fill="none" xmlns="http://www.w3.org/2000/svg">
<path d="M35 13.5L26.7847 25.0232C26.3634 25.6018 25.8611 26.0759 25.2778 26.4455C24.6944 26.8152 24.0463 27 23.3333 27H2.91667C2.10648 27 1.41782 26.7188 0.850694 26.1563C0.283565 25.5938 0 24.9107 0 24.1071V2.89286C0 2.08929 0.283565 1.40625 0.850694 0.84375C1.41782 0.28125 2.10648 0 2.91667 0H23.3333C24.0463 0 24.6944 0.184821 25.2778 0.554464C25.8611 0.924107 26.3634 1.39821 26.7847 1.97679L35 13.5ZM31.3542 13.5L23.8681 2.89286H2.91667V24.1071H23.8681L31.3542 13.5ZM2.91667 13.5V24.1071V2.89286V13.5Z" fill="black"/>
</svg>
