<svg width="100" height="100" viewBox="0 0 100 100" fill="none" xmlns="http://www.w3.org/2000/svg">
<path d="M100 50C100 38.4322 95.989 27.2223 88.6505 18.2803C81.312 9.33833 71.1 3.2175 59.7545 0.960736C48.409 -1.29602 36.632 0.45093 26.4302 5.90394C16.2283 11.3569 8.23282 20.1786 3.80602 30.8658C-0.620768 41.553 -1.20496 53.4446 2.15298 64.5142C5.51093 75.5839 12.6032 85.1468 22.2215 91.5735C31.8397 98.0002 43.3888 100.893 54.9009 99.7592C66.4129 98.6254 77.1757 93.535 85.3553 85.3553L78.8331 78.8331C72.1624 85.5038 63.3851 89.6552 53.9968 90.5798C44.6084 91.5045 35.1899 89.1453 27.346 83.9042C19.5021 78.663 13.7181 70.8643 10.9796 61.8367C8.24113 52.8091 8.71756 43.1113 12.3277 34.3956C15.9379 25.6799 22.4584 18.4857 30.7782 14.0386C39.0981 9.59155 48.7025 8.16687 57.955 10.0073C67.2076 11.8478 75.5357 16.8394 81.5204 24.1319C87.5052 31.4243 90.7762 40.5662 90.7762 50H100Z" fill="#0E51FF"/>
</svg>
