<svg width="201" height="44" viewBox="0 0 201 44" fill="none" xmlns="http://www.w3.org/2000/svg">
<path d="M2.27557 35V8.81818H7.81108V30.4361H19.0355V35H2.27557ZM22.5991 35V15.3636H28.0451V35H22.5991ZM25.3349 12.8324C24.5252 12.8324 23.8306 12.5639 23.2511 12.027C22.68 11.4815 22.3945 10.8295 22.3945 10.071C22.3945 9.32102 22.68 8.67756 23.2511 8.14062C23.8306 7.59517 24.5252 7.32244 25.3349 7.32244C26.1445 7.32244 26.8349 7.59517 27.4059 8.14062C27.9854 8.67756 28.2752 9.32102 28.2752 10.071C28.2752 10.8295 27.9854 11.4815 27.4059 12.027C26.8349 12.5639 26.1445 12.8324 25.3349 12.8324ZM48.7457 20.9631L43.7599 21.2699C43.6747 20.8437 43.4915 20.4602 43.2102 20.1193C42.929 19.7699 42.5582 19.4929 42.098 19.2884C41.6463 19.0753 41.1051 18.9688 40.4744 18.9688C39.6307 18.9688 38.919 19.1477 38.3395 19.5057C37.7599 19.8551 37.4702 20.3239 37.4702 20.9119C37.4702 21.3807 37.6577 21.777 38.0327 22.1009C38.4077 22.4247 39.0511 22.6847 39.9631 22.8807L43.517 23.5966C45.4261 23.9886 46.8494 24.6193 47.7869 25.4886C48.7244 26.358 49.1932 27.5 49.1932 28.9148C49.1932 30.2017 48.8139 31.331 48.0554 32.3026C47.3054 33.2741 46.2741 34.0327 44.9616 34.5781C43.6577 35.1151 42.1534 35.3835 40.4489 35.3835C37.8494 35.3835 35.7784 34.8423 34.2358 33.7599C32.7017 32.669 31.8026 31.1861 31.5384 29.3111L36.8949 29.0298C37.0568 29.8224 37.4489 30.4276 38.071 30.8452C38.6932 31.2543 39.4901 31.4588 40.4616 31.4588C41.4162 31.4588 42.1832 31.2756 42.7628 30.9091C43.3509 30.5341 43.6491 30.0526 43.6577 29.4645C43.6491 28.9702 43.4403 28.5653 43.0312 28.25C42.6222 27.9261 41.9915 27.679 41.1392 27.5085L37.7386 26.831C35.821 26.4474 34.3935 25.7827 33.456 24.8366C32.527 23.8906 32.0625 22.6847 32.0625 21.2188C32.0625 19.9574 32.4034 18.8707 33.0852 17.9588C33.7756 17.0469 34.7429 16.3438 35.9872 15.8494C37.2401 15.3551 38.706 15.108 40.3849 15.108C42.8651 15.108 44.8168 15.6321 46.2401 16.6804C47.6719 17.7287 48.5071 19.1562 48.7457 20.9631ZM63.0671 15.3636V19.4545H51.2418V15.3636H63.0671ZM53.9265 10.6591H59.3725V28.9659C59.3725 29.4687 59.4492 29.8608 59.6026 30.142C59.756 30.4148 59.9691 30.6065 60.2418 30.7173C60.5231 30.8281 60.8469 30.8835 61.2134 30.8835C61.4691 30.8835 61.7248 30.8622 61.9805 30.8196C62.2362 30.7685 62.4322 30.7301 62.5685 30.7045L63.4251 34.7571C63.1523 34.8423 62.7688 34.9403 62.2745 35.0511C61.7802 35.1705 61.1793 35.2429 60.4719 35.2685C59.1594 35.3196 58.0089 35.1449 57.0202 34.7443C56.0401 34.3437 55.2773 33.7216 54.7319 32.8778C54.1864 32.0341 53.918 30.9687 53.9265 29.6818V10.6591ZM75.2759 35.3835C73.2901 35.3835 71.5728 34.9616 70.1239 34.1179C68.6836 33.2656 67.5714 32.081 66.7873 30.5639C66.0032 29.0384 65.6112 27.2699 65.6112 25.2585C65.6112 23.2301 66.0032 21.4574 66.7873 19.9403C67.5714 18.4148 68.6836 17.2301 70.1239 16.3864C71.5728 15.5341 73.2901 15.108 75.2759 15.108C77.2617 15.108 78.9748 15.5341 80.4151 16.3864C81.864 17.2301 82.9805 18.4148 83.7646 19.9403C84.5487 21.4574 84.9407 23.2301 84.9407 25.2585C84.9407 27.2699 84.5487 29.0384 83.7646 30.5639C82.9805 32.081 81.864 33.2656 80.4151 34.1179C78.9748 34.9616 77.2617 35.3835 75.2759 35.3835ZM75.3015 31.1648C76.2049 31.1648 76.9592 30.9091 77.5643 30.3977C78.1694 29.8778 78.6254 29.1705 78.9322 28.2756C79.2475 27.3807 79.4052 26.3622 79.4052 25.2202C79.4052 24.0781 79.2475 23.0597 78.9322 22.1648C78.6254 21.2699 78.1694 20.5625 77.5643 20.0426C76.9592 19.5227 76.2049 19.2628 75.3015 19.2628C74.3896 19.2628 73.6225 19.5227 73.0004 20.0426C72.3867 20.5625 71.9222 21.2699 71.6069 22.1648C71.3001 23.0597 71.1467 24.0781 71.1467 25.2202C71.1467 26.3622 71.3001 27.3807 71.6069 28.2756C71.9222 29.1705 72.3867 29.8778 73.0004 30.3977C73.6225 30.9091 74.3896 31.1648 75.3015 31.1648ZM93.9279 8.81818V35H88.4819V8.81818H93.9279ZM107.163 35.3835C105.177 35.3835 103.46 34.9616 102.011 34.1179C100.57 33.2656 99.4581 32.081 98.674 30.5639C97.8899 29.0384 97.4979 27.2699 97.4979 25.2585C97.4979 23.2301 97.8899 21.4574 98.674 19.9403C99.4581 18.4148 100.57 17.2301 102.011 16.3864C103.46 15.5341 105.177 15.108 107.163 15.108C109.148 15.108 110.862 15.5341 112.302 16.3864C113.751 17.2301 114.867 18.4148 115.651 19.9403C116.435 21.4574 116.827 23.2301 116.827 25.2585C116.827 27.2699 116.435 29.0384 115.651 30.5639C114.867 32.081 113.751 33.2656 112.302 34.1179C110.862 34.9616 109.148 35.3835 107.163 35.3835ZM107.188 31.1648C108.092 31.1648 108.846 30.9091 109.451 30.3977C110.056 29.8778 110.512 29.1705 110.819 28.2756C111.134 27.3807 111.292 26.3622 111.292 25.2202C111.292 24.0781 111.134 23.0597 110.819 22.1648C110.512 21.2699 110.056 20.5625 109.451 20.0426C108.846 19.5227 108.092 19.2628 107.188 19.2628C106.276 19.2628 105.509 19.5227 104.887 20.0426C104.273 20.5625 103.809 21.2699 103.494 22.1648C103.187 23.0597 103.033 24.0781 103.033 25.2202C103.033 26.3622 103.187 27.3807 103.494 28.2756C103.809 29.1705 104.273 29.8778 104.887 30.3977C105.509 30.9091 106.276 31.1648 107.188 31.1648ZM129.215 42.7727C127.451 42.7727 125.938 42.5298 124.677 42.044C123.424 41.5668 122.427 40.9148 121.685 40.0881C120.944 39.2614 120.462 38.3324 120.241 37.3011L125.278 36.6236C125.431 37.0156 125.674 37.3821 126.006 37.723C126.339 38.0639 126.778 38.3366 127.323 38.5412C127.877 38.7543 128.55 38.8608 129.343 38.8608C130.528 38.8608 131.504 38.571 132.271 37.9915C133.046 37.4205 133.434 36.4616 133.434 35.1151V31.5227H133.204C132.965 32.0682 132.607 32.5838 132.13 33.0696C131.653 33.5554 131.039 33.9517 130.289 34.2585C129.539 34.5653 128.644 34.7188 127.604 34.7188C126.13 34.7188 124.788 34.3778 123.577 33.696C122.376 33.0057 121.417 31.9531 120.701 30.5384C119.994 29.1151 119.64 27.3168 119.64 25.1435C119.64 22.919 120.002 21.0611 120.727 19.5696C121.451 18.0781 122.414 16.9616 123.616 16.2202C124.826 15.4787 126.151 15.108 127.592 15.108C128.691 15.108 129.612 15.2955 130.353 15.6705C131.094 16.0369 131.691 16.4972 132.143 17.0511C132.603 17.5966 132.957 18.1335 133.204 18.6619H133.408V15.3636H138.816V35.1918C138.816 36.8622 138.407 38.2599 137.589 39.3849C136.771 40.5099 135.637 41.3537 134.188 41.9162C132.748 42.4872 131.09 42.7727 129.215 42.7727ZM129.33 30.6278C130.208 30.6278 130.95 30.4105 131.555 29.9759C132.168 29.5327 132.637 28.902 132.961 28.0838C133.293 27.2571 133.46 26.2685 133.46 25.1179C133.46 23.9673 133.298 22.9702 132.974 22.1264C132.65 21.2741 132.181 20.6136 131.567 20.1449C130.954 19.6761 130.208 19.4418 129.33 19.4418C128.435 19.4418 127.681 19.6847 127.067 20.1705C126.454 20.6477 125.989 21.3125 125.674 22.1648C125.359 23.017 125.201 24.0014 125.201 25.1179C125.201 26.2514 125.359 27.2315 125.674 28.0582C125.998 28.8764 126.462 29.5114 127.067 29.9631C127.681 30.4062 128.435 30.6278 129.33 30.6278ZM146.512 42.3636C145.822 42.3636 145.174 42.3082 144.569 42.1974C143.972 42.0952 143.478 41.9631 143.086 41.8011L144.313 37.7358C144.952 37.9318 145.528 38.0384 146.039 38.0554C146.559 38.0724 147.006 37.9531 147.381 37.6974C147.765 37.4418 148.076 37.0071 148.315 36.3935L148.634 35.5625L141.59 15.3636H147.317L151.383 29.7841H151.587L155.691 15.3636H161.457L153.825 37.1222C153.458 38.179 152.96 39.0994 152.329 39.8835C151.707 40.6761 150.918 41.2855 149.964 41.7116C149.009 42.1463 147.859 42.3636 146.512 42.3636Z" fill="black"/>
<path d="M172 36.0769H178.119L196.167 17.9815L190.048 11.8461L172 29.9415V36.0769ZM175.264 31.2994L190.048 16.4763L191.549 17.9815L176.765 32.8047H175.264V31.2994Z" fill="#030303"/>
<path d="M196.667 7.48276C196.025 6.83908 194.988 6.83908 194.346 7.48276L191.333 10.5031L197.506 16.6923L200.519 13.672C201.161 13.0283 201.161 11.9885 200.519 11.3448L196.667 7.48276Z" fill="#030303"/>
</svg>
