<svg width="29" height="33" viewBox="0 0 29 33" fill="none" xmlns="http://www.w3.org/2000/svg">
<path d="M0 32.0769H6.11918L24.1667 13.9815L18.0475 7.84613L0 25.9415V32.0769ZM3.26356 27.2994L18.0475 12.4763L19.5487 13.9815L4.7648 28.8047H3.26356V27.2994Z" fill="#030303"/>
<path d="M0 29.0769H6.11918L24.1667 10.9815L18.0475 4.84613L0 22.9415V29.0769ZM3.26356 24.2994L18.0475 9.47631L19.5487 10.9815L4.7648 25.8047H3.26356V24.2994Z" fill="white"/>
<path d="M24.6667 3.48276C24.0247 2.83908 22.9877 2.83908 22.3457 3.48276L19.3334 6.50309L25.5062 12.6923L28.5186 9.67197C29.1605 9.02829 29.1605 7.9885 28.5186 7.34482L24.6667 3.48276Z" fill="#030303"/>
<path d="M24.6667 0.482758C24.0247 -0.160919 22.9877 -0.160919 22.3457 0.482758L19.3334 3.50309L25.5062 9.6923L28.5186 6.67197C29.1605 6.02829 29.1605 4.9885 28.5186 4.34482L24.6667 0.482758Z" fill="white"/>
</svg>
