<svg width="41" height="36" viewBox="0 0 41 36" fill="none" xmlns="http://www.w3.org/2000/svg">
<path d="M35.1429 0H5.85714C4.30425 0.00173705 2.81545 0.634436 1.71739 1.75928C0.61933 2.88412 0.00169569 4.40923 0 6V30C0.00169569 31.5908 0.61933 33.1159 1.71739 34.2407C2.81545 35.3656 4.30425 35.9983 5.85714 36H35.1429C36.6957 35.9983 38.1846 35.3656 39.2826 34.2407C40.3807 33.1159 40.9983 31.5908 41 30V6C40.9983 4.40923 40.3807 2.88412 39.2826 1.75928C38.1846 0.634436 36.6957 0.00173705 35.1429 0ZM27.8214 6C28.6903 6 29.5396 6.26392 30.262 6.75839C30.9844 7.25285 31.5474 7.95566 31.8799 8.77792C32.2124 9.60019 32.2994 10.505 32.1299 11.3779C31.9604 12.2508 31.542 13.0526 30.9276 13.682C30.3133 14.3113 29.5306 14.7399 28.6784 14.9135C27.8263 15.0872 26.943 14.9981 26.1404 14.6575C25.3377 14.3169 24.6516 13.7401 24.1689 13.0001C23.6862 12.26 23.4286 11.39 23.4286 10.5C23.4298 9.30691 23.893 8.16303 24.7165 7.31939C25.5401 6.47574 26.6567 6.00124 27.8214 6ZM5.85714 33C5.08044 33 4.33554 32.6839 3.78633 32.1213C3.23712 31.5587 2.92857 30.7956 2.92857 30V23.6597L11.6081 15.7566C12.4456 14.9957 13.5346 14.5906 14.6535 14.6237C15.7724 14.6568 16.8368 15.1256 17.63 15.9347L23.5741 22.0106L12.8464 33H5.85714ZM38.0714 30C38.0714 30.7956 37.7629 31.5587 37.2137 32.1213C36.6645 32.6839 35.9196 33 35.1429 33H16.9885L28.1006 21.6169C28.8873 20.9315 29.8857 20.5539 30.9185 20.5512C31.9512 20.5484 32.9515 20.9207 33.7417 21.6019L38.0714 25.2975V30Z" fill="white"/>
</svg>
