<svg width="453" height="333" viewBox="0 0 453 333" fill="none" xmlns="http://www.w3.org/2000/svg">
<rect x="20" width="356" height="20" fill="#E2E2E2"/>
<rect width="44" height="20" rx="10" transform="matrix(-1 0 0 1 453 0)" fill="#E2E2E2"/>
<rect width="44" height="20" rx="10" transform="matrix(-1 0 0 1 453 29)" fill="#E2E2E2"/>
<rect width="44" height="20" rx="10" transform="matrix(-1 0 0 1 453 125)" fill="#E2E2E2"/>
<rect width="44" height="20" rx="10" transform="matrix(-1 0 0 1 453 155)" fill="#E2E2E2"/>
<rect width="44" height="20" rx="10" transform="matrix(-1 0 0 1 453 185)" fill="#E2E2E2"/>
<rect width="44" height="20" rx="10" transform="matrix(-1 0 0 1 453 215)" fill="#E2E2E2"/>
<rect width="44" height="20" rx="10" transform="matrix(-1 0 0 1 453 313)" fill="#E2E2E2"/>
<rect x="20" y="123" width="356" height="20" fill="#E2E2E2"/>
<rect x="20" y="156" width="356" height="20" fill="#E2E2E2"/>
<rect x="20" y="185" width="356" height="20" fill="#E2E2E2"/>
<rect x="20" y="312" width="356" height="20" fill="#E2E2E2"/>
<rect x="20" y="216" width="356" height="84" fill="#E2E2E2"/>
<rect x="20" y="29" width="356" height="80" fill="#E2E2E2"/>
<rect width="20" height="20" transform="matrix(-1 0 0 1 20 0)" fill="#A0A0A0"/>
<rect width="20" height="20" transform="matrix(-1 0 0 1 20 123)" fill="#A0A0A0"/>
<rect width="20" height="20" transform="matrix(-1 0 0 1 20 156)" fill="#A0A0A0"/>
<rect width="20" height="20" transform="matrix(-1 0 0 1 20 185)" fill="#A0A0A0"/>
<rect width="20" height="20" transform="matrix(-1 0 0 1 20 312)" fill="#A0A0A0"/>
<rect width="20" height="20" transform="matrix(-1 0 0 1 20 216)" fill="#A0A0A0"/>
<rect width="20" height="20" transform="matrix(-1 0 0 1 20 29)" fill="#A0A0A0"/>
</svg>
