<svg width="271" height="199" viewBox="0 0 271 199" fill="none" xmlns="http://www.w3.org/2000/svg">
<rect x="12.4377" y="0.083252" width="212.582" height="11.9428" fill="#202020"/>
<rect width="26.2742" height="11.9428" rx="5.97142" transform="matrix(-1 0 0 1 271 0.083252)" fill="#202020"/>
<rect width="26.2742" height="11.9428" rx="5.97142" transform="matrix(-1 0 0 1 271 17.4003)" fill="#202020"/>
<rect width="26.2742" height="11.9428" rx="5.97142" transform="matrix(-1 0 0 1 271 74.726)" fill="#202020"/>
<rect width="26.2742" height="11.9428" rx="5.97142" transform="matrix(-1 0 0 1 271 92.6402)" fill="#202020"/>
<rect width="26.2742" height="11.9428" rx="5.97142" transform="matrix(-1 0 0 1 271 110.554)" fill="#202020"/>
<rect width="26.2742" height="11.9428" rx="5.97142" transform="matrix(-1 0 0 1 271 128.469)" fill="#202020"/>
<rect width="26.2742" height="11.9428" rx="5.97142" transform="matrix(-1 0 0 1 271 186.989)" fill="#202020"/>
<rect x="12.4377" y="73.5316" width="212.582" height="11.9428" fill="#202020"/>
<rect x="12.4377" y="93.2374" width="212.582" height="11.9428" fill="#202020"/>
<rect x="12.4377" y="110.554" width="212.582" height="11.9428" fill="#202020"/>
<rect x="12.4377" y="186.391" width="212.582" height="11.9428" fill="#202020"/>
<rect x="12.4377" y="129.066" width="212.582" height="50.1599" fill="#202020"/>
<rect x="12.4377" y="17.4003" width="212.582" height="47.7713" fill="#202020"/>
<rect width="11.9428" height="11.9428" transform="matrix(-1 0 0 1 12.4377 0.083252)" fill="#363636"/>
<rect width="11.9428" height="11.9428" transform="matrix(-1 0 0 1 12.4377 73.5316)" fill="#363636"/>
<rect width="11.9428" height="11.9428" transform="matrix(-1 0 0 1 12.4377 93.2374)" fill="#363636"/>
<rect width="11.9428" height="11.9428" transform="matrix(-1 0 0 1 12.4377 110.554)" fill="#363636"/>
<rect width="11.9428" height="11.9428" transform="matrix(-1 0 0 1 12.4377 186.391)" fill="#363636"/>
<rect width="11.9428" height="11.9428" transform="matrix(-1 0 0 1 12.4377 129.066)" fill="#363636"/>
<rect width="11.9428" height="11.9428" transform="matrix(-1 0 0 1 12.4377 17.4003)" fill="#363636"/>
</svg>
