<svg width="205" height="321" viewBox="0 0 205 321" fill="none" xmlns="http://www.w3.org/2000/svg">
<rect x="19" width="127" height="19" fill="#E2E2E2"/>
<rect width="42.4144" height="19.2793" rx="9.63964" transform="matrix(-1 0 0 1 204.414 0)" fill="#E2E2E2"/>
<rect width="42.4144" height="19.2793" rx="9.63964" transform="matrix(-1 0 0 1 204.414 27.9549)" fill="#E2E2E2"/>
<rect width="42.4144" height="19.2793" rx="9.63964" transform="matrix(-1 0 0 1 204.414 120.495)" fill="#E2E2E2"/>
<rect width="42.4144" height="19.2793" rx="9.63964" transform="matrix(-1 0 0 1 204.414 149.414)" fill="#E2E2E2"/>
<rect width="42.4144" height="19.2793" rx="9.63964" transform="matrix(-1 0 0 1 204.414 178.333)" fill="#E2E2E2"/>
<rect width="42.4144" height="19.2793" rx="9.63964" transform="matrix(-1 0 0 1 204.414 207.252)" fill="#E2E2E2"/>
<rect width="42.4144" height="19.2793" rx="9.63964" transform="matrix(-1 0 0 1 204.414 301.721)" fill="#E2E2E2"/>
<rect x="19" y="119" width="127" height="19" fill="#E2E2E2"/>
<rect x="19" y="150" width="127" height="20" fill="#E2E2E2"/>
<rect x="19" y="178" width="127" height="20" fill="#E2E2E2"/>
<rect x="19" y="301" width="127" height="19" fill="#E2E2E2"/>
<rect x="19" y="208" width="127" height="81" fill="#E2E2E2"/>
<rect x="19" y="28" width="127" height="77" fill="#E2E2E2"/>
<rect width="19.2793" height="19.2793" transform="matrix(-1 0 0 1 19.2793 0)" fill="#A0A0A0"/>
<rect width="19.2793" height="19.2793" transform="matrix(-1 0 0 1 19.2793 118.568)" fill="#A0A0A0"/>
<rect width="19.2793" height="19.2793" transform="matrix(-1 0 0 1 19.2793 150.378)" fill="#A0A0A0"/>
<rect width="19.2793" height="19.2793" transform="matrix(-1 0 0 1 19.2793 178.333)" fill="#A0A0A0"/>
<rect width="19.2793" height="19.2793" transform="matrix(-1 0 0 1 19.2793 300.757)" fill="#A0A0A0"/>
<rect width="19.2793" height="19.2793" transform="matrix(-1 0 0 1 19.2793 208.216)" fill="#A0A0A0"/>
<rect width="19.2793" height="19.2793" transform="matrix(-1 0 0 1 19.2793 27.9549)" fill="#A0A0A0"/>
</svg>
