<svg width="25" height="29" viewBox="0 0 25 29" fill="none" xmlns="http://www.w3.org/2000/svg">
<path d="M23.9583 4.14286H17.7083V2.58929C17.7083 1.90256 17.434 1.24397 16.9456 0.758384C16.4572 0.272799 15.7948 0 15.1042 0H9.89583C9.20517 0 8.54279 0.272799 8.05441 0.758384C7.56603 1.24397 7.29167 1.90256 7.29167 2.58929V4.14286H1.04167C0.765399 4.14286 0.500448 4.25198 0.305097 4.44621C0.109747 4.64045 0 4.90388 0 5.17857C0 5.45326 0.109747 5.7167 0.305097 5.91093C0.500448 6.10517 0.765399 6.21429 1.04167 6.21429H2.14844L3.38542 25.9524C3.47786 27.6905 4.81771 29 6.51042 29H18.4896C20.1908 29 21.5039 27.7196 21.6146 25.9576L22.8516 6.21429H23.9583C24.2346 6.21429 24.4996 6.10517 24.6949 5.91093C24.8903 5.7167 25 5.45326 25 5.17857C25 4.90388 24.8903 4.64045 24.6949 4.44621C24.4996 4.25198 24.2346 4.14286 23.9583 4.14286ZM8.37044 24.8571H8.33333C8.06338 24.8573 7.8039 24.7533 7.60958 24.5669C7.41526 24.3806 7.30128 24.1266 7.29167 23.8583L6.77083 9.35833C6.76099 9.08364 6.8613 8.81631 7.04969 8.61516C7.23808 8.414 7.49912 8.2955 7.77539 8.28571C8.05166 8.27593 8.32052 8.37566 8.52283 8.56298C8.72514 8.75029 8.84432 9.00984 8.85417 9.28453L9.375 23.7845C9.37996 23.9206 9.3579 24.0562 9.31009 24.1838C9.26228 24.3113 9.18964 24.4283 9.09634 24.5279C9.00304 24.6275 8.89091 24.7079 8.76635 24.7644C8.6418 24.8209 8.50726 24.8524 8.37044 24.8571ZM13.5417 23.8214C13.5417 24.0961 13.4319 24.3596 13.2366 24.5538C13.0412 24.748 12.7763 24.8571 12.5 24.8571C12.2237 24.8571 11.9588 24.748 11.7634 24.5538C11.5681 24.3596 11.4583 24.0961 11.4583 23.8214V9.32143C11.4583 9.04674 11.5681 8.7833 11.7634 8.58907C11.9588 8.39483 12.2237 8.28571 12.5 8.28571C12.7763 8.28571 13.0412 8.39483 13.2366 8.58907C13.4319 8.7833 13.5417 9.04674 13.5417 9.32143V23.8214ZM15.625 4.14286H9.375V2.58929C9.37421 2.52106 9.38715 2.45337 9.41305 2.39019C9.43894 2.32701 9.47728 2.26961 9.5258 2.22137C9.57432 2.17312 9.63205 2.13501 9.69559 2.10926C9.75914 2.08351 9.82722 2.07065 9.89583 2.07143H15.1042C15.1728 2.07065 15.2409 2.08351 15.3044 2.10926C15.368 2.13501 15.4257 2.17312 15.4742 2.22137C15.5227 2.26961 15.5611 2.32701 15.587 2.39019C15.6129 2.45337 15.6258 2.52106 15.625 2.58929V4.14286ZM17.7083 23.8583C17.6987 24.1266 17.5847 24.3806 17.3904 24.5669C17.1961 24.7533 16.9366 24.8573 16.6667 24.8571H16.6289C16.4921 24.8523 16.3577 24.8207 16.2332 24.7642C16.1087 24.7076 15.9967 24.6273 15.9034 24.5277C15.8102 24.4281 15.7376 24.3112 15.6898 24.1836C15.6421 24.0561 15.62 23.9205 15.625 23.7845L16.1458 9.28453C16.1507 9.14852 16.1825 9.01479 16.2393 8.89099C16.2962 8.76718 16.377 8.65573 16.4772 8.56298C16.5773 8.47023 16.6949 8.39801 16.8232 8.35043C16.9514 8.30286 17.0878 8.28087 17.2246 8.28571C17.3614 8.29056 17.4959 8.32215 17.6204 8.37867C17.7449 8.4352 17.857 8.51556 17.9503 8.61516C18.0436 8.71476 18.1162 8.83165 18.1641 8.95917C18.2119 9.08668 18.234 9.22231 18.2292 9.35833L17.7083 23.8583Z" fill="#FF0000"/>
</svg>
